<svg width="113" height="38" viewBox="0 0 113 38" fill="none" xmlns="http://www.w3.org/2000/svg">
<path d="M1.13778 14V0.909091H3.90554V11.718H9.51776V14H1.13778ZM15.7356 14.1918C14.7427 14.1918 13.8841 13.9808 13.1596 13.5589C12.4395 13.1328 11.8833 12.5405 11.4913 11.782C11.0993 11.0192 10.9032 10.1349 10.9032 9.12926C10.9032 8.11506 11.0993 7.22869 11.4913 6.47017C11.8833 5.70739 12.4395 5.11506 13.1596 4.69318C13.8841 4.26705 14.7427 4.05398 15.7356 4.05398C16.7285 4.05398 17.585 4.26705 18.3052 4.69318C19.0297 5.11506 19.5879 5.70739 19.9799 6.47017C20.372 7.22869 20.568 8.11506 20.568 9.12926C20.568 10.1349 20.372 11.0192 19.9799 11.782C19.5879 12.5405 19.0297 13.1328 18.3052 13.5589C17.585 13.9808 16.7285 14.1918 15.7356 14.1918ZM15.7484 12.0824C16.2001 12.0824 16.5772 11.9545 16.8798 11.6989C17.1824 11.4389 17.4103 11.0852 17.5637 10.6378C17.7214 10.1903 17.8002 9.68111 17.8002 9.11009C17.8002 8.53906 17.7214 8.02983 17.5637 7.58239C17.4103 7.13494 17.1824 6.78125 16.8798 6.52131C16.5772 6.26136 16.2001 6.13139 15.7484 6.13139C15.2924 6.13139 14.9089 6.26136 14.5978 6.52131C14.291 6.78125 14.0588 7.13494 13.9011 7.58239C13.7477 8.02983 13.671 8.53906 13.671 9.11009C13.671 9.68111 13.7477 10.1903 13.9011 10.6378C14.0588 11.0852 14.291 11.4389 14.5978 11.6989C14.9089 11.9545 15.2924 12.0824 15.7484 12.0824ZM22.3386 14V4.18182H24.9785V5.89489H25.0808C25.2598 5.28551 25.5602 4.82528 25.9821 4.5142C26.4039 4.19886 26.8897 4.04119 27.4395 4.04119C27.5758 4.04119 27.7228 4.04972 27.8805 4.06676C28.0382 4.08381 28.1767 4.10724 28.296 4.13707V6.55327C28.1681 6.51491 27.9913 6.48082 27.7654 6.45099C27.5396 6.42116 27.3329 6.40625 27.1454 6.40625C26.7449 6.40625 26.3869 6.49361 26.0716 6.66832C25.7605 6.83878 25.5133 7.07741 25.3301 7.38423C25.1511 7.69105 25.0616 8.04474 25.0616 8.44531V14H22.3386ZM33.7212 14.1918C32.7113 14.1918 31.842 13.9872 31.1133 13.5781C30.3888 13.1648 29.8306 12.581 29.4386 11.8267C29.0465 11.0682 28.8505 10.1712 28.8505 9.13565C28.8505 8.12571 29.0465 7.23935 29.4386 6.47656C29.8306 5.71378 30.3825 5.11932 31.0941 4.69318C31.81 4.26705 32.6495 4.05398 33.6126 4.05398C34.2603 4.05398 34.8633 4.15838 35.4215 4.36719C35.984 4.57173 36.4741 4.88068 36.8917 5.29403C37.3136 5.70739 37.6417 6.22727 37.8761 6.85369C38.1104 7.47585 38.2276 8.20455 38.2276 9.03977V9.78764H29.9371V8.10014H35.6644C35.6644 7.7081 35.5792 7.3608 35.4087 7.05824C35.2383 6.75568 35.0018 6.51918 34.6992 6.34872C34.4009 6.17401 34.0536 6.08665 33.6573 6.08665C33.244 6.08665 32.8775 6.18253 32.5579 6.37429C32.2425 6.56179 31.9954 6.81534 31.8164 7.13494C31.6374 7.45028 31.5458 7.80185 31.5415 8.18963V9.79403C31.5415 10.2798 31.631 10.6996 31.81 11.0533C31.9933 11.407 32.2511 11.6797 32.5835 11.8714C32.9158 12.0632 33.31 12.1591 33.766 12.1591C34.0685 12.1591 34.3455 12.1165 34.5969 12.0312C34.8484 11.946 35.0636 11.8182 35.2425 11.6477C35.4215 11.4773 35.5579 11.2685 35.6516 11.0213L38.1701 11.1875C38.0423 11.7926 37.7802 12.321 37.3839 12.7727C36.9918 13.2202 36.4847 13.5696 35.8626 13.821C35.2447 14.0682 34.5309 14.1918 33.7212 14.1918ZM40.0046 14V4.18182H42.5998V5.91406H42.7148C42.9194 5.33878 43.2603 4.88494 43.7376 4.55256C44.2148 4.22017 44.7859 4.05398 45.4506 4.05398C46.1239 4.05398 46.6971 4.2223 47.1701 4.55895C47.6431 4.89133 47.9585 5.34304 48.1161 5.91406H48.2184C48.4187 5.35156 48.7809 4.90199 49.305 4.56534C49.8335 4.22443 50.4577 4.05398 51.1779 4.05398C52.0941 4.05398 52.8377 4.34588 53.4087 4.92969C53.984 5.50923 54.2717 6.33168 54.2717 7.39702V14H51.555V7.93395C51.555 7.38849 51.4102 6.9794 51.1204 6.70668C50.8306 6.43395 50.4684 6.29759 50.0337 6.29759C49.5394 6.29759 49.1538 6.45526 48.8768 6.7706C48.5998 7.08168 48.4613 7.4929 48.4613 8.00426V14H45.8214V7.87642C45.8214 7.39489 45.6829 7.01136 45.4059 6.72585C45.1332 6.44034 44.7731 6.29759 44.3256 6.29759C44.0231 6.29759 43.7504 6.37429 43.5075 6.5277C43.2688 6.67685 43.0792 6.88778 42.9386 7.16051C42.7979 7.42898 42.7276 7.74432 42.7276 8.10653V14H40.0046ZM63.4075 0.909091V14H60.6397V0.909091H63.4075ZM65.6335 17.6818V4.18182H68.3182V5.83097H68.4396C68.5589 5.56676 68.7315 5.2983 68.9574 5.02557C69.1875 4.74858 69.4858 4.51847 69.8523 4.33523C70.223 4.14773 70.6832 4.05398 71.233 4.05398C71.9489 4.05398 72.6094 4.24148 73.2145 4.61648C73.8196 4.98722 74.3033 5.54759 74.6655 6.29759C75.0277 7.04332 75.2088 7.97869 75.2088 9.10369C75.2088 10.1989 75.032 11.1236 74.6783 11.8778C74.3288 12.6278 73.8516 13.1967 73.2464 13.5845C72.6456 13.968 71.9723 14.1598 71.2266 14.1598C70.6982 14.1598 70.2486 14.0724 69.8778 13.8977C69.5114 13.723 69.2109 13.5036 68.9766 13.2393C68.7422 12.9709 68.5632 12.7003 68.4396 12.4276H68.3565V17.6818H65.6335ZM68.299 9.09091C68.299 9.67472 68.38 10.1839 68.5419 10.6186C68.7038 11.0533 68.9382 11.392 69.245 11.6349C69.5518 11.8736 69.9247 11.9929 70.3636 11.9929C70.8068 11.9929 71.1818 11.8714 71.4886 11.6286C71.7955 11.3814 72.0277 11.0405 72.1854 10.6058C72.3473 10.1669 72.4283 9.66193 72.4283 9.09091C72.4283 8.52415 72.3494 8.02557 72.1918 7.59517C72.0341 7.16477 71.8018 6.82812 71.495 6.58523C71.1882 6.34233 70.8111 6.22088 70.3636 6.22088C69.9205 6.22088 69.5455 6.33807 69.2386 6.57244C68.9361 6.80682 68.7038 7.1392 68.5419 7.5696C68.38 8 68.299 8.5071 68.299 9.09091ZM85.1932 6.98153L82.7003 7.13494C82.6577 6.92187 82.5661 6.73011 82.4254 6.55966C82.2848 6.38494 82.0994 6.24645 81.8693 6.14418C81.6435 6.03764 81.3729 5.98438 81.0575 5.98438C80.6357 5.98438 80.2798 6.07386 79.9901 6.25284C79.7003 6.42756 79.5554 6.66193 79.5554 6.95597C79.5554 7.19034 79.6491 7.38849 79.8366 7.55043C80.0241 7.71236 80.3459 7.84233 80.8018 7.94034L82.5788 8.2983C83.5334 8.49432 84.245 8.80966 84.7138 9.24432C85.1825 9.67898 85.4169 10.25 85.4169 10.9574C85.4169 11.6009 85.2273 12.1655 84.848 12.6513C84.473 13.1371 83.9574 13.5163 83.3011 13.7891C82.6491 14.0575 81.897 14.1918 81.0447 14.1918C79.745 14.1918 78.7095 13.9212 77.9382 13.38C77.1712 12.8345 76.7216 12.093 76.5895 11.1555L79.2678 11.0149C79.3487 11.4112 79.5447 11.7138 79.8558 11.9226C80.1669 12.1271 80.5653 12.2294 81.0511 12.2294C81.5284 12.2294 81.9119 12.1378 82.2017 11.9545C82.4957 11.767 82.6449 11.5263 82.6491 11.2322C82.6449 10.9851 82.5405 10.7827 82.3359 10.625C82.1314 10.4631 81.8161 10.3395 81.3899 10.2543L79.6896 9.91548C78.7308 9.72372 78.017 9.39134 77.5483 8.91832C77.0838 8.44531 76.8516 7.84233 76.8516 7.10938C76.8516 6.47869 77.022 5.93537 77.3629 5.4794C77.7081 5.02344 78.1918 4.67188 78.8139 4.42472C79.4403 4.17756 80.1733 4.05398 81.0128 4.05398C82.2528 4.05398 83.2287 4.31605 83.9403 4.8402C84.6563 5.36435 85.0739 6.07812 85.1932 6.98153ZM93.4277 9.8196V4.18182H96.1507V14H93.5364V12.2166H93.4341C93.2125 12.7919 92.8439 13.2543 92.3283 13.6037C91.8169 13.9531 91.1926 14.1278 90.4554 14.1278C89.7992 14.1278 89.2218 13.9787 88.7232 13.6804C88.2246 13.3821 87.8347 12.9581 87.5534 12.4084C87.2765 11.8587 87.1358 11.2003 87.1316 10.4332V4.18182H89.8546V9.94744C89.8588 10.527 90.0144 10.9851 90.3212 11.3217C90.628 11.6584 91.0392 11.8267 91.5549 11.8267C91.883 11.8267 92.1898 11.7521 92.4753 11.603C92.7608 11.4496 92.9909 11.2237 93.1657 10.9254C93.3446 10.6271 93.432 10.2585 93.4277 9.8196ZM98.3288 14V4.18182H100.924V5.91406H101.039C101.244 5.33878 101.585 4.88494 102.062 4.55256C102.539 4.22017 103.11 4.05398 103.775 4.05398C104.448 4.05398 105.021 4.2223 105.494 4.55895C105.967 4.89133 106.283 5.34304 106.44 5.91406H106.543C106.743 5.35156 107.105 4.90199 107.629 4.56534C108.158 4.22443 108.782 4.05398 109.502 4.05398C110.418 4.05398 111.162 4.34588 111.733 4.92969C112.308 5.50923 112.596 6.33168 112.596 7.39702V14H109.879V7.93395C109.879 7.38849 109.734 6.9794 109.445 6.70668C109.155 6.43395 108.793 6.29759 108.358 6.29759C107.864 6.29759 107.478 6.45526 107.201 6.7706C106.924 7.08168 106.786 7.4929 106.786 8.00426V14H104.146V7.87642C104.146 7.39489 104.007 7.01136 103.73 6.72585C103.457 6.44034 103.097 6.29759 102.65 6.29759C102.347 6.29759 102.075 6.37429 101.832 6.5277C101.593 6.67685 101.403 6.88778 101.263 7.16051C101.122 7.42898 101.052 7.74432 101.052 8.10653V14H98.3288ZM12.6882 25.4922H9.88849C9.83736 25.13 9.73295 24.8082 9.57528 24.527C9.41761 24.2415 9.2152 23.9986 8.96804 23.7983C8.72088 23.598 8.43537 23.4446 8.11151 23.3381C7.7919 23.2315 7.4446 23.1783 7.0696 23.1783C6.39205 23.1783 5.80185 23.3466 5.29901 23.6832C4.79617 24.0156 4.40625 24.5014 4.12926 25.1406C3.85227 25.7756 3.71378 26.5469 3.71378 27.4545C3.71378 28.3878 3.85227 29.1719 4.12926 29.8068C4.41051 30.4418 4.80256 30.9212 5.3054 31.245C5.80824 31.5689 6.38992 31.7308 7.05043 31.7308C7.42117 31.7308 7.7642 31.6818 8.07955 31.5838C8.39915 31.4858 8.68253 31.343 8.92969 31.1555C9.17685 30.9638 9.38139 30.7315 9.54332 30.4588C9.70952 30.1861 9.82457 29.875 9.88849 29.5256L12.6882 29.5384C12.6158 30.1392 12.4347 30.7188 12.1449 31.277C11.8594 31.831 11.4737 32.3274 10.9879 32.7663C10.5064 33.201 9.93111 33.5462 9.26207 33.8018C8.5973 34.0533 7.84517 34.179 7.00568 34.179C5.83807 34.179 4.79403 33.9148 3.87358 33.3864C2.95739 32.858 2.23295 32.093 1.70028 31.0916C1.17188 30.0902 0.90767 28.8778 0.90767 27.4545C0.90767 26.027 1.17614 24.8125 1.71307 23.8111C2.25 22.8097 2.97869 22.0469 3.89915 21.5227C4.8196 20.9943 5.85511 20.7301 7.00568 20.7301C7.7642 20.7301 8.46733 20.8366 9.11506 21.0497C9.76705 21.2628 10.3445 21.5739 10.8473 21.983C11.3501 22.3878 11.7592 22.8842 12.0746 23.4723C12.3942 24.0604 12.5987 24.7337 12.6882 25.4922ZM19.0579 34.1918C18.065 34.1918 17.2063 33.9808 16.4819 33.5589C15.7617 33.1328 15.2056 32.5405 14.8136 31.782C14.4215 31.0192 14.2255 30.1349 14.2255 29.1293C14.2255 28.1151 14.4215 27.2287 14.8136 26.4702C15.2056 25.7074 15.7617 25.1151 16.4819 24.6932C17.2063 24.267 18.065 24.054 19.0579 24.054C20.0508 24.054 20.9073 24.267 21.6275 24.6932C22.3519 25.1151 22.9102 25.7074 23.3022 26.4702C23.6942 27.2287 23.8903 28.1151 23.8903 29.1293C23.8903 30.1349 23.6942 31.0192 23.3022 31.782C22.9102 32.5405 22.3519 33.1328 21.6275 33.5589C20.9073 33.9808 20.0508 34.1918 19.0579 34.1918ZM19.0707 32.0824C19.5224 32.0824 19.8995 31.9545 20.2021 31.6989C20.5046 31.4389 20.7326 31.0852 20.886 30.6378C21.0437 30.1903 21.1225 29.6811 21.1225 29.1101C21.1225 28.5391 21.0437 28.0298 20.886 27.5824C20.7326 27.1349 20.5046 26.7812 20.2021 26.5213C19.8995 26.2614 19.5224 26.1314 19.0707 26.1314C18.6147 26.1314 18.2312 26.2614 17.9201 26.5213C17.6133 26.7812 17.381 27.1349 17.2234 27.5824C17.07 28.0298 16.9933 28.5391 16.9933 29.1101C16.9933 29.6811 17.07 30.1903 17.2234 30.6378C17.381 31.0852 17.6133 31.4389 17.9201 31.6989C18.2312 31.9545 18.6147 32.0824 19.0707 32.0824ZM25.6609 34V24.1818H28.256V25.9141H28.3711C28.5756 25.3388 28.9165 24.8849 29.3938 24.5526C29.8711 24.2202 30.4421 24.054 31.1069 24.054C31.7802 24.054 32.3533 24.2223 32.8263 24.5589C33.2994 24.8913 33.6147 25.343 33.7724 25.9141H33.8746C34.0749 25.3516 34.4371 24.902 34.9613 24.5653C35.4897 24.2244 36.114 24.054 36.8342 24.054C37.7504 24.054 38.494 24.3459 39.065 24.9297C39.6403 25.5092 39.9279 26.3317 39.9279 27.397V34H37.2113V27.9339C37.2113 27.3885 37.0664 26.9794 36.7766 26.7067C36.4869 26.4339 36.1246 26.2976 35.69 26.2976C35.1957 26.2976 34.81 26.4553 34.533 26.7706C34.256 27.0817 34.1175 27.4929 34.1175 28.0043V34H31.4776V27.8764C31.4776 27.3949 31.3391 27.0114 31.0621 26.7259C30.7894 26.4403 30.4293 26.2976 29.9819 26.2976C29.6793 26.2976 29.4066 26.3743 29.1637 26.5277C28.9251 26.6768 28.7354 26.8878 28.5948 27.1605C28.4542 27.429 28.3839 27.7443 28.3839 28.1065V34H25.6609ZM42.0788 37.6818V24.1818H44.7635V25.831H44.8849C45.0043 25.5668 45.1768 25.2983 45.4027 25.0256C45.6328 24.7486 45.9311 24.5185 46.2976 24.3352C46.6683 24.1477 47.1286 24.054 47.6783 24.054C48.3942 24.054 49.0547 24.2415 49.6598 24.6165C50.2649 24.9872 50.7486 25.5476 51.1108 26.2976C51.473 27.0433 51.6541 27.9787 51.6541 29.1037C51.6541 30.1989 51.4773 31.1236 51.1236 31.8778C50.7741 32.6278 50.2969 33.1967 49.6918 33.5845C49.0909 33.968 48.4176 34.1598 47.6719 34.1598C47.1435 34.1598 46.6939 34.0724 46.3232 33.8977C45.9567 33.723 45.6562 33.5036 45.4219 33.2393C45.1875 32.9709 45.0085 32.7003 44.8849 32.4276H44.8018V37.6818H42.0788ZM44.7443 29.0909C44.7443 29.6747 44.8253 30.1839 44.9872 30.6186C45.1491 31.0533 45.3835 31.392 45.6903 31.6349C45.9972 31.8736 46.37 31.9929 46.8089 31.9929C47.2521 31.9929 47.6271 31.8714 47.9339 31.6286C48.2408 31.3814 48.473 31.0405 48.6307 30.6058C48.7926 30.1669 48.8736 29.6619 48.8736 29.0909C48.8736 28.5241 48.7947 28.0256 48.6371 27.5952C48.4794 27.1648 48.2472 26.8281 47.9403 26.5852C47.6335 26.3423 47.2564 26.2209 46.8089 26.2209C46.3658 26.2209 45.9908 26.3381 45.6839 26.5724C45.3814 26.8068 45.1491 27.1392 44.9872 27.5696C44.8253 28 44.7443 28.5071 44.7443 29.0909ZM56.2692 34.1854C55.6428 34.1854 55.0845 34.0767 54.5945 33.8594C54.1044 33.6378 53.7166 33.3118 53.4311 32.8814C53.1499 32.4467 53.0092 31.9055 53.0092 31.2578C53.0092 30.7124 53.1094 30.2543 53.3097 29.8835C53.5099 29.5128 53.7827 29.2145 54.1278 28.9886C54.473 28.7628 54.8651 28.5923 55.304 28.4773C55.7472 28.3622 56.2116 28.2812 56.6974 28.2344C57.2685 28.1747 57.7287 28.1193 58.0781 28.0682C58.4276 28.0128 58.6811 27.9318 58.8388 27.8253C58.9964 27.7187 59.0753 27.5611 59.0753 27.3523V27.3139C59.0753 26.9091 58.9474 26.5959 58.6918 26.3743C58.4403 26.1527 58.0824 26.0419 57.6179 26.0419C57.1278 26.0419 56.7379 26.1506 56.4482 26.3679C56.1584 26.581 55.9666 26.8494 55.8729 27.1733L53.3544 26.9688C53.4822 26.3722 53.7337 25.8565 54.1087 25.4219C54.4837 24.983 54.9673 24.6463 55.5597 24.4119C56.1563 24.1733 56.8466 24.054 57.6307 24.054C58.1761 24.054 58.6982 24.1179 59.1967 24.2457C59.6996 24.3736 60.1449 24.5717 60.5327 24.8402C60.9247 25.1087 61.2337 25.4538 61.4595 25.8757C61.6854 26.2933 61.7983 26.794 61.7983 27.3778V34H59.2159V32.6385H59.1392C58.9815 32.9453 58.7706 33.2159 58.5064 33.4503C58.2422 33.6804 57.9247 33.8615 57.554 33.9936C57.1832 34.1214 56.755 34.1854 56.2692 34.1854ZM57.049 32.3061C57.4496 32.3061 57.8033 32.2273 58.1101 32.0696C58.4169 31.9077 58.6577 31.6903 58.8324 31.4176C59.0071 31.1449 59.0945 30.8359 59.0945 30.4908V29.4489C59.0092 29.5043 58.892 29.5554 58.7429 29.6023C58.598 29.6449 58.4339 29.6854 58.2507 29.7237C58.0675 29.7578 57.8842 29.7898 57.701 29.8196C57.5178 29.8452 57.3516 29.8686 57.2024 29.8899C56.8828 29.9368 56.6037 30.0114 56.3651 30.1136C56.1264 30.2159 55.9411 30.3544 55.8089 30.5291C55.6768 30.6996 55.6108 30.9126 55.6108 31.1683C55.6108 31.5391 55.745 31.8224 56.0135 32.0185C56.2862 32.2102 56.6314 32.3061 57.049 32.3061ZM66.6339 28.3239V34H63.9109V24.1818H66.506V25.9141H66.6211C66.8384 25.343 67.2028 24.8913 67.7141 24.5589C68.2255 24.2223 68.8455 24.054 69.5742 24.054C70.256 24.054 70.8505 24.2031 71.3576 24.5014C71.8647 24.7997 72.2589 25.2259 72.5401 25.7798C72.8214 26.3295 72.962 26.9858 72.962 27.7486V34H70.239V28.2344C70.2433 27.6335 70.0898 27.1648 69.7788 26.8281C69.4677 26.4872 69.0394 26.3168 68.494 26.3168C68.1275 26.3168 67.8036 26.3956 67.5224 26.5533C67.2454 26.7109 67.0281 26.9411 66.8704 27.2436C66.717 27.5419 66.6381 27.902 66.6339 28.3239ZM76.4377 37.6818C76.0925 37.6818 75.7686 37.6541 75.4661 37.5987C75.1678 37.5476 74.9206 37.4815 74.7246 37.4006L75.3382 35.3679C75.6578 35.4659 75.9455 35.5192 76.2012 35.5277C76.4611 35.5362 76.6848 35.4766 76.8723 35.3487C77.0641 35.2209 77.2196 35.0036 77.339 34.6967L77.4988 34.2812L73.9767 24.1818H76.8404L78.873 31.392H78.9753L81.0272 24.1818H83.91L80.0939 35.0611C79.9107 35.5895 79.6614 36.0497 79.3461 36.4418C79.035 36.8381 78.6408 37.1428 78.1635 37.3558C77.6863 37.5732 77.111 37.6818 76.4377 37.6818Z" fill="white"/>
</svg>
